<?xml version="1.0" encoding="UTF-8"?>
<svg xmlns="http://www.w3.org/2000/svg" xmlns:xlink="http://www.w3.org/1999/xlink" width="30px" height="4px" viewBox="0 0 30 4" version="1.1">
<defs>
<linearGradient id="linear0" gradientUnits="userSpaceOnUse" x1="0" y1="17.76" x2="273.42" y2="17.76" gradientTransform="matrix(0.109721,0,0,0.11094,0,0.0296979)">
<stop offset="0" style="stop-color:rgb(56.470588%,80.784314%,63.137255%);stop-opacity:1;"/>
<stop offset="0.56" style="stop-color:rgb(23.529412%,74.509804%,78.823529%);stop-opacity:1;"/>
<stop offset="1" style="stop-color:rgb(0%,70.196078%,89.803922%);stop-opacity:1;"/>
</linearGradient>
</defs>
<g id="surface1">
<path style=" stroke:none;fill-rule:nonzero;fill:url(#linear0);" d="M 21.050781 3.953125 L 28.0625 3.953125 C 29.132812 3.953125 30 3.074219 30 1.992188 C 30 1.472656 29.796875 0.972656 29.433594 0.605469 C 29.070312 0.238281 28.574219 0.03125 28.0625 0.03125 L 21.050781 0.03125 C 20.535156 0.03125 20.042969 0.238281 19.679688 0.605469 C 19.3125 0.972656 19.109375 1.472656 19.109375 1.992188 C 19.109375 3.074219 19.980469 3.953125 21.050781 3.953125 Z M 1.109375 3.960938 L 1.964844 3.960938 L 1.964844 0.796875 L 3.070312 0.796875 L 3.070312 0.03125 L 0 0.03125 L 0 0.796875 L 1.109375 0.796875 Z M 4.191406 3.960938 L 5.046875 3.960938 L 5.046875 0.945312 L 5.058594 0.945312 L 6.039062 3.957031 L 6.699219 3.957031 L 7.714844 0.945312 L 7.722656 0.945312 L 7.722656 3.957031 L 8.582031 3.957031 L 8.582031 0.03125 L 7.289062 0.03125 L 6.390625 2.59375 L 6.378906 2.59375 L 5.484375 0.03125 L 4.191406 0.03125 Z M 9.78125 0.0429688 L 11.0625 0.0429688 C 11.363281 0.0429688 11.660156 0.0820312 11.949219 0.152344 C 12.214844 0.21875 12.464844 0.332031 12.683594 0.496094 C 12.894531 0.65625 13.066406 0.867188 13.179688 1.109375 C 13.308594 1.394531 13.371094 1.707031 13.363281 2.023438 C 13.367188 2.3125 13.308594 2.601562 13.183594 2.863281 C 13.070312 3.101562 12.90625 3.308594 12.703125 3.472656 C 12.496094 3.640625 12.261719 3.769531 12.007812 3.847656 C 11.738281 3.933594 11.460938 3.976562 11.179688 3.976562 L 9.78125 3.976562 Z M 10.636719 3.171875 L 11.074219 3.171875 C 11.261719 3.171875 11.445312 3.152344 11.625 3.109375 C 11.785156 3.078125 11.9375 3.011719 12.070312 2.914062 C 12.195312 2.816406 12.296875 2.6875 12.363281 2.542969 C 12.441406 2.363281 12.476562 2.171875 12.472656 1.980469 C 12.476562 1.804688 12.4375 1.632812 12.363281 1.476562 C 12.296875 1.339844 12.195312 1.21875 12.074219 1.125 C 11.949219 1.03125 11.804688 0.960938 11.65625 0.917969 C 11.488281 0.871094 11.316406 0.847656 11.140625 0.847656 L 10.636719 0.847656 Z M 14.601562 0.0429688 L 16.050781 0.0429688 C 16.222656 0.0429688 16.390625 0.0546875 16.558594 0.078125 C 16.71875 0.101562 16.875 0.148438 17.015625 0.222656 C 17.148438 0.292969 17.265625 0.398438 17.347656 0.527344 C 17.4375 0.679688 17.480469 0.859375 17.472656 1.042969 C 17.480469 1.242188 17.414062 1.441406 17.289062 1.597656 C 17.160156 1.746094 16.992188 1.855469 16.800781 1.910156 L 16.800781 1.914062 C 16.925781 1.933594 17.042969 1.96875 17.152344 2.027344 C 17.253906 2.078125 17.34375 2.148438 17.421875 2.230469 C 17.496094 2.316406 17.554688 2.414062 17.59375 2.523438 C 17.632812 2.636719 17.652344 2.757812 17.652344 2.878906 C 17.660156 3.058594 17.613281 3.238281 17.519531 3.398438 C 17.433594 3.53125 17.320312 3.648438 17.179688 3.730469 C 17.035156 3.816406 16.878906 3.878906 16.710938 3.914062 C 16.542969 3.949219 16.367188 3.96875 16.195312 3.96875 L 14.601562 3.96875 Z M 15.457031 1.613281 L 16.078125 1.613281 C 16.144531 1.613281 16.210938 1.605469 16.273438 1.589844 C 16.335938 1.578125 16.394531 1.554688 16.445312 1.519531 C 16.496094 1.484375 16.539062 1.4375 16.570312 1.386719 C 16.601562 1.324219 16.617188 1.253906 16.617188 1.1875 C 16.621094 1.113281 16.601562 1.046875 16.566406 0.984375 C 16.535156 0.929688 16.488281 0.886719 16.433594 0.859375 C 16.371094 0.828125 16.304688 0.804688 16.238281 0.796875 C 16.171875 0.78125 16.105469 0.777344 16.035156 0.773438 L 15.453125 0.773438 Z M 15.457031 3.238281 L 16.226562 3.238281 C 16.292969 3.238281 16.363281 3.230469 16.425781 3.214844 C 16.492188 3.203125 16.554688 3.175781 16.609375 3.136719 C 16.667969 3.101562 16.710938 3.050781 16.746094 2.992188 C 16.78125 2.929688 16.800781 2.851562 16.796875 2.777344 C 16.800781 2.699219 16.777344 2.621094 16.730469 2.554688 C 16.683594 2.5 16.625 2.453125 16.554688 2.425781 C 16.484375 2.394531 16.410156 2.375 16.335938 2.363281 C 16.261719 2.351562 16.1875 2.347656 16.113281 2.347656 L 15.464844 2.347656 Z M 15.457031 3.238281 "/>
</g>
</svg>
